<?xml version="1.0" encoding="UTF-8"?>
<!DOCTYPE svg PUBLIC "-//W3C//DTD SVG 1.1//EN" "http://www.w3.org/Graphics/SVG/1.1/DTD/svg11.dtd">
<svg xmlns="http://www.w3.org/2000/svg" version="1.1" width="1269px" height="870px" style="shape-rendering:geometricPrecision; text-rendering:geometricPrecision; image-rendering:optimizeQuality; fill-rule:evenodd; clip-rule:evenodd" xmlns:xlink="http://www.w3.org/1999/xlink">
<g><path style="opacity:1" fill="#fafafa" d="M -0.5,-0.5 C 422.5,-0.5 845.5,-0.5 1268.5,-0.5C 1268.5,289.5 1268.5,579.5 1268.5,869.5C 845.5,869.5 422.5,869.5 -0.5,869.5C -0.5,579.5 -0.5,289.5 -0.5,-0.5 Z"/></g>
<g><path style="opacity:1" fill="#222831" d="M 11.5,12.5 C 426.833,12.5 842.167,12.5 1257.5,12.5C 1257.5,293.833 1257.5,575.167 1257.5,856.5C 842.167,856.5 426.833,856.5 11.5,856.5C 11.5,575.167 11.5,293.833 11.5,12.5 Z"/></g>
<g><path style="opacity:1" fill="#fefefe" d="M 1236.5,33.5 C 1236.5,300.833 1236.5,568.167 1236.5,835.5C 835.167,835.5 433.833,835.5 32.5,835.5C 32.5,568.167 32.5,300.833 32.5,33.5C 433.833,33.5 835.167,33.5 1236.5,33.5 Z"/></g>
<g><path style="opacity:1" fill="#3d434a" d="M 1236.5,33.5 C 1237.5,300.999 1237.83,568.666 1237.5,836.5C 835.666,836.833 434,836.5 32.5,835.5C 433.833,835.5 835.167,835.5 1236.5,835.5C 1236.5,568.167 1236.5,300.833 1236.5,33.5 Z"/></g>
<g><path style="opacity:1" fill="#919398" d="M 501.5,124.5 C 458.264,123.17 414.931,123.17 371.5,124.5C 392.99,123.167 414.823,122.5 437,122.5C 458.833,122.833 480.667,123.167 502.5,123.5C 502.376,124.107 502.043,124.44 501.5,124.5 Z"/></g>
<g><path style="opacity:1" fill="#919398" d="M 630.5,123.5 C 673.663,122.501 716.997,122.168 760.5,122.5C 760.737,123.791 760.404,124.791 759.5,125.5C 716.846,123.505 673.846,122.839 630.5,123.5 Z"/></g>
<g><path style="opacity:1" fill="#919398" d="M 1019.5,124.5 C 976.598,123.17 933.598,123.17 890.5,124.5C 911.823,123.167 933.49,122.5 955.5,122.5C 977.167,122.833 998.833,123.167 1020.5,123.5C 1020.38,124.107 1020.04,124.44 1019.5,124.5 Z"/></g>
<g><path style="opacity:1" fill="#222831" d="M 501.5,124.5 C 470.561,237.986 440.228,351.653 410.5,465.5C 409.566,466.568 409.232,467.901 409.5,469.5C 452.67,469.832 495.67,469.499 538.5,468.5C 568.709,353.327 599.376,238.327 630.5,123.5C 673.846,122.839 716.846,123.505 759.5,125.5C 729.188,238.747 699.188,352.081 669.5,465.5C 668.566,466.568 668.232,467.901 668.5,469.5C 712.003,469.832 755.337,469.499 798.5,468.5C 828.308,353.714 858.975,239.047 890.5,124.5C 933.598,123.17 976.598,123.17 1019.5,124.5C 976.701,282.027 934.368,439.693 892.5,597.5C 676.903,598.499 461.236,598.832 245.5,598.5C 286.6,440.092 328.6,282.092 371.5,124.5C 414.931,123.17 458.264,123.17 501.5,124.5 Z"/></g>
<g><path style="opacity:1" fill="#909297" d="M 410.5,465.5 C 410.5,466.5 410.5,467.5 410.5,468.5C 453.167,468.5 495.833,468.5 538.5,468.5C 495.67,469.499 452.67,469.832 409.5,469.5C 409.232,467.901 409.566,466.568 410.5,465.5 Z"/></g>
<g><path style="opacity:1" fill="#909297" d="M 669.5,465.5 C 669.5,466.5 669.5,467.5 669.5,468.5C 712.5,468.5 755.5,468.5 798.5,468.5C 755.337,469.499 712.003,469.832 668.5,469.5C 668.232,467.901 668.566,466.568 669.5,465.5 Z"/></g>
<g><path style="opacity:1" fill="#919398" d="M 892.5,597.5 C 785.002,598.833 677.169,599.5 569,599.5C 460.999,599.5 353.166,599.167 245.5,598.5C 461.236,598.832 676.903,598.499 892.5,597.5 Z"/></g>
<g><path style="opacity:1" fill="#4b5057" d="M 558.5,691.5 C 563.305,690.513 568.305,690.179 573.5,690.5C 573.5,686.833 573.5,683.167 573.5,679.5C 558.5,679.5 543.5,679.5 528.5,679.5C 528.5,683.167 528.5,686.833 528.5,690.5C 528.167,690.5 527.833,690.5 527.5,690.5C 527.5,686.5 527.5,682.5 527.5,678.5C 543.167,678.5 558.833,678.5 574.5,678.5C 574.5,682.833 574.5,687.167 574.5,691.5C 569.167,691.5 563.833,691.5 558.5,691.5 Z"/></g>
<g><path style="opacity:1" fill="#252b34" d="M 745.5,678.5 C 758.549,676.275 770.216,679.109 780.5,687C 791.232,699.78 793.398,713.946 787,729.5C 780.041,741.982 769.374,747.982 755,747.5C 733.259,745.926 721.759,734.259 720.5,712.5C 721.282,695.412 729.616,684.079 745.5,678.5 Z"/></g>
<g><path style="opacity:1" fill="#262c34" d="M 987.5,677.5 C 1008.48,675.887 1022.31,684.887 1029,704.5C 1029.92,737.581 1014.09,751.415 981.5,746C 966.426,739.249 959.093,727.582 959.5,711C 959.482,701.026 963.148,692.693 970.5,686C 976.036,682.565 981.703,679.732 987.5,677.5 Z"/></g>
<g><path style="opacity:1" fill="#262c35" d="M 237.5,678.5 C 242.5,678.5 247.5,678.5 252.5,678.5C 256.349,695.554 260.516,712.554 265,729.5C 270.54,712.821 275.706,695.987 280.5,679C 284.755,678.204 288.921,678.371 293,679.5C 297.546,696.029 302.546,712.363 308,728.5C 312.44,712.193 316.773,695.86 321,679.5C 325.737,678.531 330.57,678.197 335.5,678.5C 329.368,701.363 323.701,724.363 318.5,747.5C 312.167,747.5 305.833,747.5 299.5,747.5C 295.753,733.593 291.419,719.927 286.5,706.5C 281.17,719.824 276.837,733.491 273.5,747.5C 267.167,747.5 260.833,747.5 254.5,747.5C 248.729,724.556 243.063,701.556 237.5,678.5 Z"/></g>
<g><path style="opacity:1" fill="#242a33" d="M 509.5,745.5 C 505.03,746.486 500.363,746.819 495.5,746.5C 494.551,741.762 492.884,737.262 490.5,733C 480.839,732.5 471.172,732.334 461.5,732.5C 459.968,737.097 458.635,741.764 457.5,746.5C 452.381,747.103 447.715,746.436 443.5,744.5C 451.699,722.57 459.699,700.57 467.5,678.5C 473.5,678.5 479.5,678.5 485.5,678.5C 493.215,700.93 501.215,723.264 509.5,745.5 Z"/></g>
<g><path style="opacity:1" fill="#222831" d="M 558.5,691.5 C 557.503,709.659 557.17,727.992 557.5,746.5C 553.167,746.5 548.833,746.5 544.5,746.5C 544.5,727.833 544.5,709.167 544.5,690.5C 539.167,690.5 533.833,690.5 528.5,690.5C 528.5,686.833 528.5,683.167 528.5,679.5C 543.5,679.5 558.5,679.5 573.5,679.5C 573.5,683.167 573.5,686.833 573.5,690.5C 568.305,690.179 563.305,690.513 558.5,691.5 Z"/></g>
<g><path style="opacity:1" fill="#242a33" d="M 654.5,678.5 C 669.833,678.5 685.167,678.5 700.5,678.5C 700.5,682.833 700.5,687.167 700.5,691.5C 695.167,691.5 689.833,691.5 684.5,691.5C 683.503,709.659 683.17,727.992 683.5,746.5C 679.167,746.5 674.833,746.5 670.5,746.5C 670.5,727.833 670.5,709.167 670.5,690.5C 665.167,690.5 659.833,690.5 654.5,690.5C 654.5,686.5 654.5,682.5 654.5,678.5 Z"/></g>
<g><path style="opacity:1" fill="#252b34" d="M 879.5,678.5 C 892.613,677.9 905.613,678.733 918.5,681C 931.476,687.607 937.476,698.274 936.5,713C 936.879,733.611 926.879,744.944 906.5,747C 897.506,747.5 888.506,747.666 879.5,747.5C 879.5,724.5 879.5,701.5 879.5,678.5 Z"/></g>
<g><path style="opacity:1" fill="#888b90" d="M 527.5,690.5 C 527.833,690.5 528.167,690.5 528.5,690.5C 533.833,690.5 539.167,690.5 544.5,690.5C 544.5,709.167 544.5,727.833 544.5,746.5C 548.833,746.5 553.167,746.5 557.5,746.5C 553.03,747.486 548.363,747.819 543.5,747.5C 543.5,728.833 543.5,710.167 543.5,691.5C 537.974,691.821 532.64,691.488 527.5,690.5 Z"/></g>
<g><path style="opacity:1" fill="#9c9ea2" d="M 654.5,678.5 C 654.5,682.5 654.5,686.5 654.5,690.5C 659.833,690.5 665.167,690.5 670.5,690.5C 670.5,709.167 670.5,727.833 670.5,746.5C 670.5,746.833 670.5,747.167 670.5,747.5C 669.503,729.007 669.17,710.341 669.5,691.5C 664.167,691.5 658.833,691.5 653.5,691.5C 653.182,686.968 653.515,682.634 654.5,678.5 Z"/></g>
<g><path style="opacity:1" fill="#64686d" d="M 684.5,691.5 C 684.5,710.167 684.5,728.833 684.5,747.5C 679.833,747.5 675.167,747.5 670.5,747.5C 670.5,747.167 670.5,746.833 670.5,746.5C 674.833,746.5 679.167,746.5 683.5,746.5C 683.17,727.992 683.503,709.659 684.5,691.5 Z"/></g>
<g><path style="opacity:1" fill="#fafafa" d="M 751.5,690.5 C 769.771,690.94 777.937,700.273 776,718.5C 770.839,733.362 760.672,738.195 745.5,733C 735.49,725.485 732.323,715.651 736,703.5C 739.266,696.721 744.433,692.388 751.5,690.5 Z"/></g>
<g><path style="opacity:1" fill="#fbfbfb" d="M 893.5,691.5 C 915.8,688.635 924.967,698.301 921,720.5C 919.839,727.346 916.006,731.846 909.5,734C 904.177,734.499 898.844,734.666 893.5,734.5C 893.5,720.167 893.5,705.833 893.5,691.5 Z"/></g>
<g><path style="opacity:1" fill="#fbfbfb" d="M 990.5,690.5 C 1008.74,690.911 1016.91,700.244 1015,718.5C 1010.63,731.775 1001.47,736.941 987.5,734C 976.232,728.297 971.732,719.13 974,706.5C 976.786,698.211 982.286,692.878 990.5,690.5 Z"/></g>
<g><path style="opacity:1" fill="#f6f6f6" d="M 485.5,719.5 C 479.355,720.49 473.022,720.823 466.5,720.5C 469.036,711.229 472.369,702.229 476.5,693.5C 480.248,701.908 483.248,710.574 485.5,719.5 Z"/></g>
<g><path style="opacity:1" fill="#a7a9ad" d="M 597.5,716.5 C 608.654,715.505 619.988,715.172 631.5,715.5C 631.817,719.702 631.483,723.702 630.5,727.5C 630.5,723.833 630.5,720.167 630.5,716.5C 619.5,716.5 608.5,716.5 597.5,716.5 Z"/></g>
<g><path style="opacity:1" fill="#222831" d="M 597.5,716.5 C 608.5,716.5 619.5,716.5 630.5,716.5C 630.5,720.167 630.5,723.833 630.5,727.5C 619.5,727.5 608.5,727.5 597.5,727.5C 597.5,723.833 597.5,720.167 597.5,716.5 Z"/></g>
<g><path style="opacity:1" fill="#232932" d="M 815.5,716.5 C 826.833,716.5 838.167,716.5 849.5,716.5C 849.5,720.167 849.5,723.833 849.5,727.5C 838.167,727.5 826.833,727.5 815.5,727.5C 815.5,723.833 815.5,720.167 815.5,716.5 Z"/></g>
<g><path style="opacity:1" fill="#7c8085" d="M 361.5,678.5 C 361.5,701.167 361.5,723.833 361.5,746.5C 365.833,746.5 370.167,746.5 374.5,746.5C 374.5,737.167 374.5,727.833 374.5,718.5C 384.5,718.5 394.5,718.5 404.5,718.5C 404.5,727.833 404.5,737.167 404.5,746.5C 408.833,746.5 413.167,746.5 417.5,746.5C 417.5,723.833 417.5,701.167 417.5,678.5C 418.498,701.327 418.831,724.327 418.5,747.5C 413.5,747.5 408.5,747.5 403.5,747.5C 403.5,738.167 403.5,728.833 403.5,719.5C 394.167,719.5 384.833,719.5 375.5,719.5C 375.5,728.833 375.5,738.167 375.5,747.5C 370.5,747.5 365.5,747.5 360.5,747.5C 360.169,724.327 360.502,701.327 361.5,678.5 Z"/></g>
<g><path style="opacity:1" fill="#242a32" d="M 361.5,678.5 C 366.167,678.5 370.833,678.5 375.5,678.5C 375.5,687.833 375.5,697.167 375.5,706.5C 385.167,706.5 394.833,706.5 404.5,706.5C 404.5,697.167 404.5,687.833 404.5,678.5C 408.833,678.5 413.167,678.5 417.5,678.5C 417.5,701.167 417.5,723.833 417.5,746.5C 413.167,746.5 408.833,746.5 404.5,746.5C 404.5,737.167 404.5,727.833 404.5,718.5C 394.5,718.5 384.5,718.5 374.5,718.5C 374.5,727.833 374.5,737.167 374.5,746.5C 370.167,746.5 365.833,746.5 361.5,746.5C 361.5,723.833 361.5,701.167 361.5,678.5 Z"/></g>
<g><path style="opacity:1" fill="#aaacb0" d="M 485.5,719.5 C 486.043,719.56 486.376,719.893 486.5,720.5C 479.678,721.818 473.011,721.818 466.5,720.5C 473.022,720.823 479.355,720.49 485.5,719.5 Z"/></g>
<g><path style="opacity:1" fill="#7b7f84" d="M 443.5,744.5 C 447.715,746.436 452.381,747.103 457.5,746.5C 452.695,747.487 447.695,747.821 442.5,747.5C 442.263,746.209 442.596,745.209 443.5,744.5 Z"/></g>
<g><path style="opacity:1" fill="#7c8085" d="M 509.5,745.5 C 510.043,745.56 510.376,745.893 510.5,746.5C 505.348,747.814 500.348,747.814 495.5,746.5C 500.363,746.819 505.03,746.486 509.5,745.5 Z"/></g>
</svg>
